<svg width="110" height="110" viewBox="0 0 110 110" fill="none" xmlns="http://www.w3.org/2000/svg">
<path fill-rule="evenodd" clip-rule="evenodd" d="M58.9286 2.2C58.9286 0.984973 57.9436 0 56.7286 0H53.2714C52.0564 0 51.0714 0.984973 51.0714 2.2V23.4712C51.0714 25.8893 47.7375 26.5373 46.8316 24.2953L38.8633 4.57301C38.4081 3.44645 37.1259 2.90218 35.9994 3.35734L32.7939 4.65241C31.6674 5.10756 31.1231 6.38979 31.5783 7.51636L40.0733 28.5422C40.971 30.7643 38.1725 32.6167 36.4778 30.922L20.4427 14.8869C19.5835 14.0277 18.1905 14.0277 17.3314 14.8869L14.8869 17.3314C14.0277 18.1905 14.0277 19.5835 14.8869 20.4427L29.2863 34.8422C31.0053 36.5611 29.0776 39.3871 26.8499 38.4138L8.18923 30.2608C7.07581 29.7743 5.7789 30.2826 5.29244 31.3959L3.90832 34.5639C3.42187 35.6773 3.93011 36.9742 5.04351 37.4607L26.5462 46.8554C28.7307 47.8099 28.0493 51.0714 25.6654 51.0714H2.2C0.984973 51.0714 0 52.0564 0 53.2714V56.7286C0 57.9436 0.984973 58.9286 2.2 58.9286H25.6653C28.0492 58.9286 28.7306 62.1902 26.5461 63.1444L5.04353 72.5395C3.93014 73.0257 3.4219 74.3226 3.90835 75.4358L5.29247 78.6038C5.77891 79.7176 7.07586 80.2257 8.18923 79.739L26.8499 71.5863C29.0776 70.6129 31.0053 73.4388 29.2863 75.1581L14.8869 89.557C14.0277 90.4167 14.0277 91.8093 14.8869 92.6684L17.3314 95.1132C18.1905 95.9723 19.5835 95.9723 20.4427 95.1132L36.4778 79.0779C38.1725 77.3834 40.9711 79.2357 40.0733 81.4577L31.5783 102.484C31.1231 103.61 31.6674 104.892 32.7939 105.348L35.9993 106.643C37.1259 107.098 38.4081 106.554 38.8633 105.427L46.8316 85.7048C47.7375 83.4625 51.0714 84.1109 51.0714 86.5287V107.8C51.0714 109.015 52.0564 110 53.2714 110H56.7286C57.9436 110 58.9286 109.015 58.9286 107.8V86.5287C58.9286 84.1109 62.2627 83.4625 63.1686 85.7048L71.1365 105.427C71.5919 106.554 72.8739 107.098 74.0008 106.643L77.2063 105.348C78.3326 104.892 78.8772 103.61 78.4218 102.484L69.927 81.4577C69.0289 79.2357 71.8273 77.3834 73.5224 79.0779L89.557 95.1132C90.4167 95.9723 91.8093 95.9723 92.6684 95.1132L95.1132 92.6684C95.9723 91.8093 95.9723 90.4167 95.1132 89.557L80.7136 75.1581C78.9949 73.4388 80.9226 70.6129 83.1501 71.5863L101.811 79.739C102.924 80.2257 104.221 79.7176 104.707 78.6038L106.092 75.4358C106.578 74.3226 106.07 73.0257 104.957 72.5395L83.4537 63.1444C81.2696 62.1902 81.9506 58.9286 84.3348 58.9286H107.8C109.015 58.9286 110 57.9436 110 56.7286V53.2714C110 52.0564 109.015 51.0714 107.8 51.0714H84.3348C81.9506 51.0714 81.2691 47.8099 83.4537 46.8554L104.957 37.4607C106.07 36.9742 106.578 35.6773 106.092 34.5639L104.707 31.3959C104.221 30.2826 102.924 29.7743 101.811 30.2608L83.1501 38.4138C80.9226 39.387 78.9949 36.5611 80.7136 34.8422L95.1132 20.4426C95.9723 19.5835 95.9723 18.1905 95.1132 17.3314L92.6684 14.8868C91.8093 14.0276 90.4167 14.0276 89.557 14.8868L73.5224 30.9219C71.8273 32.6166 69.0289 30.7642 69.927 28.5421L78.4218 7.51636C78.8772 6.38979 78.3326 5.10756 77.2063 4.65241L74.0008 3.35734C72.8739 2.90218 71.5919 3.44645 71.1365 4.57301L63.1686 24.2953C62.2627 26.5373 58.9286 25.8893 58.9286 23.4712V2.2Z" fill="#d9d9d9"/>
</svg>
