<svg width="116" height="116" viewBox="0 0 116 116" fill="none" xmlns="http://www.w3.org/2000/svg">
<path fill-rule="evenodd" clip-rule="evenodd" d="M65.07 53.2735L100.183 18.1607L97.8394 15.8171L62.7109 50.9455L81.722 5.0455L78.6599 3.77726L59.6525 49.6685V0H56.3382V49.6685L37.3308 3.77726L34.2687 5.0455L53.2735 50.9296L18.1607 15.8171L15.8171 18.1607L50.9296 53.2732L5.0455 34.2687L3.77726 37.3308L49.6685 56.3382H0V59.6525H49.6685L3.77726 78.6599L5.0455 81.722L50.9455 62.7109L15.8171 97.8394L18.1607 100.183L53.2735 65.07L34.2687 110.955L37.3308 112.223L56.3382 66.3315V116H59.6525V66.3315L78.6599 112.223L81.722 110.955L62.7109 65.0545L97.8394 100.183L100.183 97.8394L65.0545 62.7109L110.955 81.722L112.223 78.6599L66.3315 59.6525H116V56.3382H66.3315L112.223 37.3308L110.955 34.2687L65.07 53.2735Z" fill="#d9d9d9"/>
</svg>
